<?xml version="1.0" encoding="UTF-8" standalone="no"?>
<!-- Created with Inkscape (http://www.inkscape.org/) -->

<svg
   width="1149.6163mm"
   height="287.75015mm"
   viewBox="0 0 1149.6163 287.75015"
   version="1.1"
   id="svg23874"
   inkscape:version="1.2.1 (9c6d41e4, 2022-07-14)"
   sodipodi:docname="logo_large.svg"
   xmlns:inkscape="http://www.inkscape.org/namespaces/inkscape"
   xmlns:sodipodi="http://sodipodi.sourceforge.net/DTD/sodipodi-0.dtd"
   xmlns="http://www.w3.org/2000/svg"
   xmlns:svg="http://www.w3.org/2000/svg">
  <sodipodi:namedview
     id="namedview23876"
     pagecolor="#ffffff"
     bordercolor="#000000"
     borderopacity="0.25"
     inkscape:showpageshadow="2"
     inkscape:pageopacity="0.0"
     inkscape:pagecheckerboard="0"
     inkscape:deskcolor="#d1d1d1"
     inkscape:document-units="mm"
     showgrid="false"
     inkscape:zoom="0.11805273"
     inkscape:cx="1965.2236"
     inkscape:cy="635.30935"
     inkscape:window-width="1344"
     inkscape:window-height="456"
     inkscape:window-x="0"
     inkscape:window-y="144"
     inkscape:window-maximized="0"
     inkscape:current-layer="layer1" />
  <defs
     id="defs23871" />
  <g
     inkscape:label="Ebene 1"
     inkscape:groupmode="layer"
     id="layer1"
     transform="translate(104.1387,-164.4511)">
    <g
       id="g18962"
       transform="translate(-4066.7687,-1632.0067)"
       inkscape:export-filename="logo_large.png"
       inkscape:export-xdpi="96"
       inkscape:export-ydpi="96">
      <path
         id="path18944"
         style="fill:#9d9d9d;fill-opacity:1;stroke-width:1.31606;stroke-linecap:round"
         d="m 4241.6089,1995.0372 c -1.9343,-0.5804 -5.1078,-3.1832 -5.1078,-3.1832 l -10.4229,-10.8743 3.1142,-27.3403 14.4461,-9.1885 c 0,0 3.9186,-1.9912 6.0609,-2.1006 2.8592,-0.1459 8.3444,1.9649 8.3444,1.9649 l 32.9751,12.8528 c 0,0 2.5626,0.9829 3.8334,2.8935 1.5558,2.339 0.6085,6.0978 0.6085,6.0978 l -2.3482,18.0477 c 0,0 -0.1745,3.75 -2.6368,5.73 -3.062,2.4624 -6.1129,2.691 -6.1129,2.691 l -32.4017,2.7022 c 0,0 -7.0563,0.6963 -10.3534,-0.293 z"
         sodipodi:nodetypes="accccaccsccsccaa" />
      <path
         class="st0"
         d="m 4201.7965,1828.3747 c -6.353,-14.4778 -22.6074,-31.9074 -42.1103,-31.9121 -15.3615,0 -37.8356,0 -37.8356,0 -8.0015,0 -8.2532,7.6808 -14.1621,7.6757 -5.9132,0 -7.6808,-7.6808 -13.0017,-7.6805 h -19.512 c -2.7693,0 -5.0202,2.2459 -5.0202,5.0202 v 27.1788 c 0,2.7743 2.2509,5.0252 5.0249,5.0249 h 19.5076 c 5.3263,0 7.0882,-7.6808 13.0021,-7.6707 7.9717,0 11.6442,5.0202 11.6493,10.04 v 10.0404 l 4.0083,6.8712 h 27.7706 l 3.6725,-6.8715 c 0,-8.8605 4.5018,-14.6211 10.0501,-14.6208 8.5891,0 21.8868,0.8887 31.1914,4.872 5.9278,2.5418 8.8648,-2.9522 5.7651,-7.9771 z m -41.2216,3.5489 c -0.035,0 4.1511,-0.4492 4.2155,-0.4441 z"
         id="path18946"
         style="fill:#9d9d9d;fill-opacity:1;stroke-width:0.446772" />
      <path
         class="st0"
         d="m 4060.773,1998.3618 -5.782,2.4309 c 0,0 -7.9304,4.1202 -8.3626,12.2771 -0.7537,14.2003 -11.1659,26.7731 -25.205,32.7543 -3.9903,1.703 -11.0906,2.8656 -11.0906,2.8656 -0.701,0.1789 -1.4431,0.042 -2.0322,-0.385 l -2.8752,-2.0547 c -0.5399,-0.385 -0.8957,-0.9745 -0.998,-1.6298 -0.096,-0.6532 0.078,-1.322 0.4829,-1.8393 l 16.7137,-21.8308 c 0.6188,-0.812 0.6708,-1.9248 0.1317,-2.7851 l -11.0182,-17.5401 c -0.3333,-0.536 -0.867,-0.919 -1.473,-1.0674 l -17.4376,-4.3654 c -0.9485,-0.242 -1.9373,0.1069 -2.5344,0.8836 l -17.6518,23.0557 c -0.7983,1.0396 -2.2933,1.2655 -3.367,0.4976 l -3.7626,-2.7039 c -0.5363,-0.3765 -0.8884,-0.9565 -0.9956,-1.5997 0,0 -0.5305,-2.5756 -0.6976,-4.3615 -1.6909,-17.801 8.1294,-35.4165 25.4636,-42.8093 12.7995,-5.4625 26.7434,-4.0146 37.9469,2.4319 8.6124,4.9594 13.7105,6.3055 19.4632,4.0385 0.5159,-0.2098 2.1045,-0.8878 4.5273,-1.9478 z"
         id="path18948"
         style="fill:#9d9d9d;fill-opacity:1;stroke-width:0.434339" />
      <path
         id="path18950"
         style="fill:#d3d3d3;fill-opacity:1;stroke-width:0.413411"
         class="st0"
         d="m 4177.4112,1946.1954 a 41.717163,41.717163 0 0 1 1.7466,11.9352 41.717163,41.717163 0 0 1 -3.4525,16.5447 c 13.168,1.4475 27.5968,3.0394 42.183,4.6726 l 3.2267,-27.2479 z" />
      <path
         id="path18952"
         style="fill:#d3d3d3;fill-opacity:1;stroke-width:0.413411"
         class="st0"
         d="m 4096.0657,1952.9635 c -12.2488,5.1969 -25.0026,10.609 -38.5997,16.3664 l 10.6345,25.508 34.5266,-13.7485 a 41.717163,41.717163 0 0 1 -6.9035,-22.9588 41.717163,41.717163 0 0 1 0.3421,-5.1671 z" />
      <path
         id="path18954"
         style="fill:#d3d3d3;fill-opacity:1;stroke-width:0.413411"
         class="st0"
         d="m 4123.6181,1860.0978 -1.1235,59.0967 a 41.717163,41.717163 0 0 1 14.9464,-2.7807 41.717163,41.717163 0 0 1 13.994,2.42 c -0.056,-16.0675 -0.1248,-36.8972 -0.1809,-58.6543 z" />
      <path
         id="path18956"
         style="fill:#d3d3d3;fill-opacity:1;stroke-width:0.413411"
         class="st0"
         d="m 4169.1579,1985.1853 a 41.717163,41.717163 0 0 1 -25.2594,14.1511 c 3.1338,4.9021 6.9053,10.805 10.6185,16.6165 a 46.138397,46.138397 0 0 1 24.4171,-14.689 z" />
      <circle
         style="fill:#52a7ff;fill-opacity:1;stroke-width:1.17244;stroke-linecap:round"
         id="circle18958"
         cx="4189.2988"
         cy="2046.224"
         r="37.983959" />
      <circle
         style="fill:#16e5ff;fill-opacity:1;stroke-width:1.07135;stroke-linecap:round"
         id="circle18960"
         cx="4137.4409"
         cy="1958.1351"
         r="34.708866" />
    </g>
    <text
       xml:space="preserve"
       style="font-weight:500;font-size:190.362px;font-family:'Terminator Real NFI';-inkscape-font-specification:'Terminator Real NFI Medium';fill:#9d9d9d;fill-opacity:1;stroke:none;stroke-width:77.9434;stroke-linecap:round"
       x="329.14709"
       y="372.2616"
       id="text19018"><tspan
         sodipodi:role="line"
         id="tspan19016"
         style="font-style:normal;font-variant:normal;font-weight:normal;font-stretch:normal;font-family:'Avenir Next';-inkscape-font-specification:'Avenir Next';fill:#9d9d9d;fill-opacity:1;stroke-width:77.9434"
         x="329.14709"
         y="372.2616">biobuild</tspan></text>
  </g>
</svg>
